<?xml version="1.0" encoding="UTF-8" standalone="no"?>
<!-- Created with Inkscape (http://www.inkscape.org/) -->

<svg
   id="svg5"
   version="1.1"
   viewBox="0 0 210 297"
   height="297mm"
   width="210mm"
   sodipodi:docname="ArduinoAndri.svg"
   inkscape:version="1.1 (c4e8f9e, 2021-05-24)"
   xmlns:inkscape="http://www.inkscape.org/namespaces/inkscape"
   xmlns:sodipodi="http://sodipodi.sourceforge.net/DTD/sodipodi-0.dtd"
   xmlns="http://www.w3.org/2000/svg"
   xmlns:svg="http://www.w3.org/2000/svg">
  <sodipodi:namedview
     id="namedview7"
     pagecolor="#ffffff"
     bordercolor="#666666"
     borderopacity="1.0"
     inkscape:pageshadow="2"
     inkscape:pageopacity="0.0"
     inkscape:pagecheckerboard="0"
     inkscape:document-units="mm"
     showgrid="false"
     inkscape:zoom="0.97742958"
     inkscape:cx="428.16384"
     inkscape:cy="300.27739"
     inkscape:window-width="1312"
     inkscape:window-height="1003"
     inkscape:window-x="0"
     inkscape:window-y="23"
     inkscape:window-maximized="0"
     inkscape:current-layer="layer1"
     showguides="true"
     inkscape:guide-bbox="true" />
  <defs
     id="defs2" />
  <g
     inkscape:label="Layer 1"
     inkscape:groupmode="layer"
     id="layer1">
    <g
       id="panel7872">
      <path
         style="fill:none;stroke:#000000;stroke-width:1"
         d="M 28.4 97.9 L 35.2143 97.9 L 35.2143 94.8 L 41.4143 94.8 L 41.4143 97.9 L 48.1286 97.9 L 48.1286 94.8 L 54.3286 94.8 L 54.3286 97.9 L 61.0429 97.9 L 61.0429 94.8 L 67.2429 94.8 L 67.2429 97.9 L 73.9571 97.9 L 73.9571 94.8 L 80.1571 94.8 L 80.1571 97.9 L 86.8714 97.9 L 86.8714 94.8 L 93.0714 94.8 L 93.0714 97.9 L 99.7857 97.9 L 99.7857 94.8 L 105.986 94.8 L 105.986 97.9 L 112.8 97.9"
         id="path12747" />
      <path
         style="fill:none;stroke:#000000;stroke-width:1"
         d="M 112.8 97.9 L 112.8 105.1 L 109.7 105.1 L 109.7 110.9 L 112.8 110.9 L 112.8 118.1"
         id="path12749" />
      <path
         style="fill:none;stroke:#000000;stroke-width:1"
         d="M 112.8,118.1 H 28.4"
         id="path12751"
         sodipodi:nodetypes="cc" />
      <path
         style="fill:none;stroke:#000000;stroke-width:1"
         d="M 28.4 118.1 L 28.4 110.9 L 31.5 110.9 L 31.5 105.1 L 28.4 105.1 L 28.4 97.9"
         id="path12753" />
    </g>
    <g
       id="panel8020">
      <path
         style="fill:none;stroke:#000000;stroke-width:1"
         d="M 4.1 31.5 L 11.1 31.5 L 11.1 28.4 L 17.3 28.4 L 17.3 31.5 L 24.3 31.5"
         id="path12756" />
      <path
         style="fill:none;stroke:#000000;stroke-width:1"
         d="M 24.3 31.5 L 24.3 36.58 L 27.4 36.58 L 27.4 42.78 L 24.3 42.78 L 24.3 50.86 L 27.4 50.86 L 27.4 57.06 L 24.3 57.06 L 24.3 65.14 L 27.4 65.14 L 27.4 71.34 L 24.3 71.34 L 24.3 79.42 L 27.4 79.42 L 27.4 85.62 L 24.3 85.62 L 24.3 90.7"
         id="path12758" />
      <path
         style="fill:none;stroke:#000000;stroke-width:1"
         d="M 24.3 90.7 L 17.3 90.7 L 17.3 93.8 L 11.1 93.8 L 11.1 90.7 L 4.1 90.7"
         id="path12760" />
      <path
         style="fill:none;stroke:#000000;stroke-width:1"
         d="M 4.1,90.7 V 85.62 H 1 v -6.2 H 4.1 V 42.78 H 1 v -6.2 H 4.1 V 31.5"
         id="path12762"
         sodipodi:nodetypes="cccccccccc" />
    </g>
    <g
       id="panel4579">
      <path
         style="fill:none;stroke:#000000;stroke-width:1"
         d="M 28.4 28.4 L 35.4143 28.4 L 35.4143 31.5 L 41.2143 31.5 L 41.2143 28.4 L 48.3286 28.4 L 48.3286 31.5 L 54.1286 31.5 L 54.1286 28.4 L 61.2429 28.4 L 61.2429 31.5 L 67.0429 31.5 L 67.0429 28.4 L 74.1571 28.4 L 74.1571 31.5 L 79.9571 31.5 L 79.9571 28.4 L 87.0714 28.4 L 87.0714 31.5 L 92.8714 31.5 L 92.8714 28.4 L 99.9857 28.4 L 99.9857 31.5 L 105.786 31.5 L 105.786 28.4 L 112.8 28.4"
         id="path12765" />
      <path
         style="fill:none;stroke:#000000;stroke-width:1"
         d="M 112.8 28.4 L 112.8 36.78 L 109.7 36.78 L 109.7 42.58 L 112.8 42.58 L 112.8 51.06 L 109.7 51.06 L 109.7 56.86 L 112.8 56.86 L 112.8 65.34 L 109.7 65.34 L 109.7 71.14 L 112.8 71.14 L 112.8 79.62 L 109.7 79.62 L 109.7 85.42 L 112.8 85.42 L 112.8 93.8"
         id="path12767" />
      <path
         style="fill:none;stroke:#000000;stroke-width:1"
         d="M 112.8 93.8 L 105.786 93.8 L 105.786 90.7 L 99.9857 90.7 L 99.9857 93.8 L 92.8714 93.8 L 92.8714 90.7 L 87.0714 90.7 L 87.0714 93.8 L 79.9571 93.8 L 79.9571 90.7 L 74.1571 90.7 L 74.1571 93.8 L 67.0429 93.8 L 67.0429 90.7 L 61.2429 90.7 L 61.2429 93.8 L 54.1286 93.8 L 54.1286 90.7 L 48.3286 90.7 L 48.3286 93.8 L 41.2143 93.8 L 41.2143 90.7 L 35.4143 90.7 L 35.4143 93.8 L 28.4 93.8"
         id="path12769" />
      <path
         style="fill:none;stroke:#000000;stroke-width:1"
         d="M 28.4 93.8 L 28.4 85.42 L 31.5 85.42 L 31.5 79.62 L 28.4 79.62 L 28.4 71.14 L 31.5 71.14 L 31.5 65.34 L 28.4 65.34 L 28.4 56.86 L 31.5 56.86 L 31.5 51.06 L 28.4 51.06 L 28.4 42.58 L 31.5 42.58 L 31.5 36.78 L 28.4 36.78 L 28.4 28.4"
         id="path12771" />
    </g>
    <g
       id="panel8314">
      <path
         style="fill:none;stroke:#000000;stroke-width:1"
         d="M 116.9 31.5 L 123.9 31.5 L 123.9 28.4 L 130.1 28.4 L 130.1 31.5 L 137.1 31.5"
         id="path12774" />
      <path
         style="fill:none;stroke:#000000;stroke-width:1"
         d="m 137.1,31.5 v 5.08 h 3.1 v 6.2 h -3.1 v 36.64 h 3.1 v 6.2 h -3.1 v 5.08"
         id="path12776"
         sodipodi:nodetypes="cccccccccc" />
      <path
         style="fill:none;stroke:#000000;stroke-width:1"
         d="M 137.1 90.7 L 130.1 90.7 L 130.1 93.8 L 123.9 93.8 L 123.9 90.7 L 116.9 90.7"
         id="path12778" />
      <path
         style="fill:none;stroke:#000000;stroke-width:1"
         d="M 116.9 90.7 L 116.9 85.62 L 113.8 85.62 L 113.8 79.42 L 116.9 79.42 L 116.9 71.34 L 113.8 71.34 L 113.8 65.14 L 116.9 65.14 L 116.9 57.06 L 113.8 57.06 L 113.8 50.86 L 116.9 50.86 L 116.9 42.78 L 113.8 42.78 L 113.8 36.58 L 116.9 36.58 L 116.9 31.5"
         id="path12780" />
    </g>
    <g
       id="panel1185"
       transform="translate(22.793023,0.69069767)">
      <path
         style="fill:none;stroke:#000000;stroke-width:1"
         d="m 138.55417,28.4 h 89.69166"
         id="path12783"
         sodipodi:nodetypes="cc" />
      <path
         style="fill:none;stroke:#000000;stroke-width:1"
         d="m 228.24583,28.4 v 8.38 H 222.5 v 5.8 h 5.74583 v 8.48 H 222.5 v 20.08 h 5.74583 v 8.48 H 222.5 v 5.8 h 5.74583 v 8.38"
         id="path12785"
         sodipodi:nodetypes="cccccccccccccc" />
      <path
         style="fill:none;stroke:#000000;stroke-width:1"
         d="M 228.24583,93.8 H 138.55417"
         id="path12787"
         sodipodi:nodetypes="cc" />
      <path
         style="fill:none;stroke:#000000;stroke-width:1"
         d="M 138.55417,93.8 V 85.42 H 144.3 v -5.8 h -5.74583 V 71.14 H 144.3 V 51.06 h -5.74583 V 42.58 H 144.3 v -5.8 h -5.74583 V 28.4"
         id="path12789"
         sodipodi:nodetypes="cccccccccccccc" />
    </g>
    <g
       id="panel4908">
      <path
         style="fill:none;stroke:#000000;stroke-width:1"
         d="m 28.4,4.1 h 84.4"
         id="path12792"
         sodipodi:nodetypes="cc" />
      <path
         style="fill:none;stroke:#000000;stroke-width:1"
         d="M 112.8 4.1 L 112.8 11.3 L 109.7 11.3 L 109.7 17.1 L 112.8 17.1 L 112.8 24.3"
         id="path12794" />
      <path
         style="fill:none;stroke:#000000;stroke-width:1"
         d="M 112.8 24.3 L 105.986 24.3 L 105.986 27.4 L 99.7857 27.4 L 99.7857 24.3 L 93.0714 24.3 L 93.0714 27.4 L 86.8714 27.4 L 86.8714 24.3 L 80.1571 24.3 L 80.1571 27.4 L 73.9571 27.4 L 73.9571 24.3 L 67.2429 24.3 L 67.2429 27.4 L 61.0429 27.4 L 61.0429 24.3 L 54.3286 24.3 L 54.3286 27.4 L 48.1286 27.4 L 48.1286 24.3 L 41.4143 24.3 L 41.4143 27.4 L 35.2143 27.4 L 35.2143 24.3 L 28.4 24.3"
         id="path12796" />
      <path
         style="fill:none;stroke:#000000;stroke-width:1"
         d="M 28.4 24.3 L 28.4 17.1 L 31.5 17.1 L 31.5 11.3 L 28.4 11.3 L 28.4 4.1"
         id="path12798" />
    </g>
    <rect
       style="fill:none;stroke:#000000;stroke-width:0.290761"
       id="rect15347"
       width="11.709239"
       height="13.709239"
       x="8.6466017"
       y="43.181477"
       rx="0"
       ry="0" />
    <rect
       style="fill:none;stroke:#000000;stroke-width:0.395177"
       id="rect15349"
       width="12.604823"
       height="10.604823"
       x="8.0081129"
       y="74.151657"
       rx="0"
       ry="0" />
    <rect
       style="fill:none;stroke:#000000;stroke-width:0.285286"
       id="rect16546"
       width="63.523899"
       height="10.340178"
       x="174.4113"
       y="77.368286" />
    <rect
       style="fill:none;stroke:#000000;stroke-width:0.264999"
       id="rect16674"
       width="62.853485"
       height="10.360465"
       x="174.74651"
       y="38.333721" />
    <g
       aria-label="Andri Snær Ásmundsson"
       id="text4681"
       style="font-size:5.64444px;line-height:1.25;stroke-width:0.264583;fill:#ff0000">
      <path
         d="m 176.48896,65.237015 h -0.58153 l -0.40238,-1.143771 h -1.77492 l -0.40238,1.143771 h -0.55397 l 1.49379,-4.103795 h 0.7276 z m -1.15204,-1.612304 -0.71933,-2.01469 -0.72209,2.01469 z"
         id="path6893"
         style="fill:#ff0000" />
      <path
         d="m 179.64467,65.237015 h -0.51814 v -1.752863 q 0,-0.212218 -0.0248,-0.396875 -0.0248,-0.187413 -0.0909,-0.292144 -0.0689,-0.115755 -0.19844,-0.170877 -0.12953,-0.05788 -0.33624,-0.05788 -0.21221,0 -0.44372,0.104731 -0.23151,0.10473 -0.44373,0.267339 v 2.298566 H 177.0705 V 62.15848 h 0.51814 v 0.341753 q 0.24253,-0.201193 0.5016,-0.314192 0.25907,-0.113 0.53193,-0.113 0.49885,0 0.76067,0.300413 0.26183,0.300412 0.26183,0.865407 z"
         id="path6895"
         style="fill:#ff0000" />
      <path
         d="m 183.13937,65.237015 h -0.51814 v -0.322461 q -0.22324,0.192925 -0.46578,0.300412 -0.24253,0.107487 -0.52641,0.107487 -0.55121,0 -0.87643,-0.424435 -0.32246,-0.424436 -0.32246,-1.176844 0,-0.391363 0.11024,-0.697287 0.113,-0.305924 0.30317,-0.520898 0.18741,-0.209462 0.43546,-0.319705 0.2508,-0.110243 0.51814,-0.110243 0.24254,0 0.42995,0.05237 0.18741,0.04961 0.39412,0.157096 v -1.33394 h 0.51814 z m -0.51814,-0.757921 v -1.766643 q -0.20946,-0.09371 -0.37483,-0.129536 -0.16536,-0.03583 -0.36104,-0.03583 -0.43546,0 -0.678,0.303168 -0.24253,0.303169 -0.24253,0.859896 0,0.548458 0.18741,0.83509 0.18741,0.283876 0.60083,0.283876 0.22048,0 0.44648,-0.09646 0.226,-0.09922 0.42168,-0.253559 z"
         id="path6897"
         style="fill:#ff0000" />
      <path
         d="m 186.0801,62.723475 h -0.0276 q -0.11575,-0.02756 -0.226,-0.03858 -0.10748,-0.01378 -0.25631,-0.01378 -0.23978,0 -0.46302,0.107486 -0.22324,0.104731 -0.42995,0.272852 v 2.185567 h -0.51814 V 62.15848 h 0.51814 v 0.454752 q 0.30868,-0.248047 0.54295,-0.350021 0.23702,-0.104731 0.48231,-0.104731 0.13505,0 0.19568,0.0083 0.0606,0.0055 0.1819,0.02481 z"
         id="path6899"
         style="fill:#ff0000" />
      <path
         d="m 187.13017,61.643094 h -0.58429 v -0.537435 h 0.58429 z m -0.0331,3.593921 h -0.51814 V 62.15848 h 0.51814 z"
         id="path6901"
         style="fill:#ff0000" />
      <path
         d="m 193.13565,64.065683 q 0,0.239779 -0.113,0.474045 -0.11024,0.234266 -0.31143,0.396875 -0.22049,0.176388 -0.51539,0.275607 -0.29214,0.09922 -0.70555,0.09922 -0.44373,0 -0.79927,-0.08268 -0.35277,-0.08268 -0.71933,-0.245291 V 64.29995 h 0.0386 q 0.31144,0.25907 0.71934,0.39963 0.4079,0.14056 0.76619,0.14056 0.50712,0 0.78824,-0.190169 0.28387,-0.190169 0.28387,-0.507118 0,-0.272851 -0.13505,-0.402387 -0.13229,-0.129535 -0.40514,-0.201193 -0.2067,-0.05512 -0.44924,-0.09095 -0.23978,-0.03583 -0.50987,-0.09095 -0.54571,-0.115755 -0.81029,-0.394119 -0.26183,-0.281119 -0.26183,-0.730359 0,-0.515386 0.43546,-0.843359 0.43546,-0.330729 1.10519,-0.330729 0.4327,0 0.79375,0.08268 0.36104,0.08268 0.63941,0.20395 v 0.644921 h -0.0386 q -0.23426,-0.198437 -0.61736,-0.327973 -0.38034,-0.132291 -0.77997,-0.132291 -0.43821,0 -0.70555,0.181901 -0.26458,0.181901 -0.26458,0.468532 0,0.256315 0.13229,0.402387 0.13229,0.146072 0.46577,0.223242 0.17639,0.03858 0.50161,0.09371 0.32522,0.05512 0.55121,0.112999 0.45751,0.121267 0.68902,0.366558 0.23151,0.24529 0.23151,0.686262 z"
         id="path6903"
         style="fill:#ff0000" />
      <path
         d="m 196.54492,65.237015 h -0.51815 v -1.752863 q 0,-0.212218 -0.0248,-0.396875 -0.0248,-0.187413 -0.0909,-0.292144 -0.0689,-0.115755 -0.19844,-0.170877 -0.12953,-0.05788 -0.33624,-0.05788 -0.21222,0 -0.44373,0.104731 -0.23151,0.10473 -0.44373,0.267339 v 2.298566 h -0.51814 V 62.15848 h 0.51814 v 0.341753 q 0.24254,-0.201193 0.50161,-0.314192 0.25907,-0.113 0.53192,-0.113 0.49885,0 0.76068,0.300413 0.26183,0.300412 0.26183,0.865407 z"
         id="path6905"
         style="fill:#ff0000" />
      <path
         d="m 202.14526,63.696369 h -2.25723 q 0,0.314193 0.0827,0.537435 0.0827,0.223242 0.23426,0.366558 0.14332,0.132291 0.339,0.195681 0.19568,0.06063 0.4327,0.06063 0.30593,0 0.59807,-0.113 0.2949,-0.115755 0.4768,-0.259071 h 0.0331 v 0.564996 q -0.21498,0.09646 -0.50988,0.179145 -0.29214,0.07993 -0.59255,0.07993 -0.45751,0 -0.78549,-0.143316 -0.32521,-0.143316 -0.53467,-0.427192 -0.0579,0.05237 -0.18466,0.162609 -0.12678,0.110243 -0.26458,0.187413 -0.17364,0.09922 -0.37759,0.162608 -0.20395,0.06615 -0.52089,0.06615 -0.41342,0 -0.70556,-0.267339 -0.28939,-0.267339 -0.28939,-0.686263 0,-0.341753 0.14883,-0.551215 0.14883,-0.212217 0.42719,-0.327972 0.26183,-0.107487 0.66422,-0.146072 0.40238,-0.03858 0.84887,-0.04685 v -0.16812 q 0,-0.179145 -0.0634,-0.2949 -0.0634,-0.118511 -0.17639,-0.181901 -0.11024,-0.06339 -0.26458,-0.08544 -0.15434,-0.02481 -0.31971,-0.02481 -0.21773,0 -0.46578,0.05788 -0.24529,0.05788 -0.49333,0.157096 h -0.0358 v -0.52641 q 0.15158,-0.04134 0.43546,-0.09371 0.28387,-0.05237 0.56224,-0.05237 0.43821,0 0.7276,0.129535 0.29214,0.12678 0.44924,0.377582 0.19017,-0.225998 0.46853,-0.369314 0.27837,-0.143316 0.62288,-0.143316 0.59806,0 0.94257,0.352778 0.34727,0.352777 0.34727,1.044552 z m -0.50161,-0.396874 q -0.0138,-0.187414 -0.0661,-0.327973 -0.0496,-0.14056 -0.13781,-0.242535 -0.0937,-0.107487 -0.24529,-0.16812 -0.14882,-0.06063 -0.36655,-0.06063 -0.36656,0 -0.61461,0.206706 -0.24805,0.206705 -0.31695,0.592556 z m -2.14698,1.11621 q -0.0551,-0.146072 -0.0854,-0.327973 -0.0276,-0.181901 -0.0276,-0.388607 -0.28938,0.0083 -0.55397,0.02205 -0.26458,0.01102 -0.49058,0.0689 -0.21773,0.05512 -0.35278,0.181901 -0.13229,0.124023 -0.13229,0.352777 0,0.261827 0.15985,0.388607 0.15986,0.126779 0.48507,0.126779 0.27285,0 0.53744,-0.118511 0.26734,-0.118511 0.46026,-0.305924 z"
         id="path6907"
         style="fill:#ff0000" />
      <path
         d="m 204.85448,62.723475 h -0.0276 q -0.11575,-0.02756 -0.226,-0.03858 -0.10748,-0.01378 -0.25631,-0.01378 -0.23978,0 -0.46302,0.107486 -0.22324,0.104731 -0.42995,0.272852 v 2.185567 H 202.9335 V 62.15848 h 0.51814 v 0.454752 q 0.30868,-0.248047 0.54295,-0.350021 0.23702,-0.104731 0.48231,-0.104731 0.13505,0 0.19568,0.0083 0.0606,0.0055 0.1819,0.02481 z"
         id="path6909"
         style="fill:#ff0000" />
      <path
         d="m 210.60917,65.237015 h -0.58154 l -0.40238,-1.143771 h -1.77492 l -0.40238,1.143771 h -0.55397 l 1.49379,-4.103795 h 0.7276 z m -1.15204,-1.612304 -0.71934,-2.01469 -0.72209,2.01469 z m -0.003,-4.034892 -0.75241,1.030771 h -0.41065 l 0.49333,-1.030771 z"
         id="path6911"
         style="fill:#ff0000" />
      <path
         d="m 213.39004,64.349559 q 0,0.421679 -0.35002,0.691774 -0.34727,0.270096 -0.95085,0.270096 -0.34175,0 -0.62838,-0.07993 -0.28388,-0.08268 -0.4768,-0.179145 v -0.581532 h 0.0276 q 0.24529,0.184657 0.5457,0.2949 0.30041,0.107487 0.57602,0.107487 0.34175,0 0.53468,-0.110243 0.19293,-0.110243 0.19293,-0.347265 0,-0.181901 -0.10474,-0.275608 -0.10473,-0.09371 -0.40238,-0.159852 -0.11025,-0.0248 -0.28939,-0.05788 -0.17639,-0.03307 -0.32246,-0.07166 -0.40514,-0.107487 -0.57602,-0.314192 -0.16812,-0.209462 -0.16812,-0.51263 0,-0.190169 0.0772,-0.35829 0.0799,-0.16812 0.23978,-0.300412 0.15434,-0.129535 0.39136,-0.203949 0.23978,-0.07717 0.53468,-0.07717 0.27561,0 0.55673,0.0689 0.28387,0.06614 0.47128,0.162608 v 0.553971 h -0.0276 q -0.19843,-0.146072 -0.48231,-0.245291 -0.28388,-0.101974 -0.55673,-0.101974 -0.28387,0 -0.47955,0.110243 -0.19568,0.107486 -0.19568,0.32246 0,0.190169 0.11851,0.286632 0.11575,0.09646 0.37482,0.157096 0.14332,0.03307 0.31971,0.06615 0.17914,0.03307 0.29765,0.06063 0.36105,0.08268 0.55673,0.283875 0.19568,0.20395 0.19568,0.540191 z"
         id="path6913"
         style="fill:#ff0000" />
      <path
         d="m 218.62658,65.237015 h -0.51814 v -1.752863 q 0,-0.198438 -0.0193,-0.383095 -0.0165,-0.184657 -0.0744,-0.2949 -0.0634,-0.118511 -0.1819,-0.179145 -0.11852,-0.06063 -0.34176,-0.06063 -0.21773,0 -0.43546,0.110243 -0.21773,0.107487 -0.43546,0.275607 0.008,0.06339 0.0138,0.148828 0.006,0.08268 0.006,0.165365 v 1.970593 h -0.51814 v -1.752863 q 0,-0.20395 -0.0193,-0.385851 -0.0165,-0.184657 -0.0744,-0.2949 -0.0634,-0.118511 -0.1819,-0.176389 -0.11852,-0.06063 -0.34176,-0.06063 -0.21222,0 -0.42719,0.104731 -0.21222,0.10473 -0.42443,0.267339 v 2.298566 h -0.51815 V 62.15848 h 0.51815 v 0.341753 q 0.24253,-0.201193 0.48231,-0.314192 0.24253,-0.113 0.51538,-0.113 0.3142,0 0.53193,0.132292 0.22048,0.132292 0.32797,0.366558 0.31419,-0.264583 0.57326,-0.380338 0.25907,-0.118512 0.55397,-0.118512 0.50712,0 0.7469,0.308681 0.24253,0.305924 0.24253,0.857139 z"
         id="path6915"
         style="fill:#ff0000" />
      <path
         d="m 222.17641,65.237015 h -0.51814 v -0.341753 q -0.26183,0.206705 -0.50161,0.316948 -0.23978,0.110243 -0.52916,0.110243 -0.48507,0 -0.75517,-0.2949 -0.27009,-0.297656 -0.27009,-0.870919 V 62.15848 h 0.51814 v 1.752863 q 0,0.234266 0.022,0.402387 0.022,0.165364 0.0937,0.283876 0.0744,0.121267 0.19293,0.176388 0.11851,0.05512 0.34451,0.05512 0.20119,0 0.43821,-0.104731 0.23978,-0.104731 0.44649,-0.267339 V 62.15848 h 0.51814 z"
         id="path6917"
         style="fill:#ff0000" />
      <path
         d="m 225.77033,65.237015 h -0.51814 v -1.752863 q 0,-0.212218 -0.0248,-0.396875 -0.0248,-0.187413 -0.091,-0.292144 -0.0689,-0.115755 -0.19843,-0.170877 -0.12954,-0.05788 -0.33625,-0.05788 -0.21221,0 -0.44372,0.104731 -0.23151,0.10473 -0.44373,0.267339 v 2.298566 h -0.51814 V 62.15848 h 0.51814 v 0.341753 q 0.24253,-0.201193 0.5016,-0.314192 0.25908,-0.113 0.53193,-0.113 0.49885,0 0.76067,0.300413 0.26183,0.300412 0.26183,0.865407 z"
         id="path6919"
         style="fill:#ff0000" />
      <path
         d="m 229.26503,65.237015 h -0.51814 v -0.322461 q -0.22324,0.192925 -0.46578,0.300412 -0.24253,0.107487 -0.52641,0.107487 -0.55121,0 -0.87643,-0.424435 -0.32246,-0.424436 -0.32246,-1.176844 0,-0.391363 0.11024,-0.697287 0.113,-0.305924 0.30317,-0.520898 0.18742,-0.209462 0.43546,-0.319705 0.25081,-0.110243 0.51814,-0.110243 0.24254,0 0.42995,0.05237 0.18742,0.04961 0.39412,0.157096 v -1.33394 h 0.51814 z m -0.51814,-0.757921 v -1.766643 q -0.20946,-0.09371 -0.37483,-0.129536 -0.16536,-0.03583 -0.36104,-0.03583 -0.43546,0 -0.678,0.303168 -0.24253,0.303169 -0.24253,0.859896 0,0.548458 0.18741,0.83509 0.18742,0.283876 0.60083,0.283876 0.22048,0 0.44648,-0.09646 0.226,-0.09922 0.42168,-0.253559 z"
         id="path6921"
         style="fill:#ff0000" />
      <path
         d="m 232.48413,64.349559 q 0,0.421679 -0.35002,0.691774 -0.34727,0.270096 -0.95085,0.270096 -0.34175,0 -0.62838,-0.07993 -0.28388,-0.08268 -0.47681,-0.179145 v -0.581532 h 0.0276 q 0.24529,0.184657 0.5457,0.2949 0.30041,0.107487 0.57602,0.107487 0.34175,0 0.53468,-0.110243 0.19292,-0.110243 0.19292,-0.347265 0,-0.181901 -0.10473,-0.275608 -0.10473,-0.09371 -0.40239,-0.159852 -0.11024,-0.0248 -0.28938,-0.05788 -0.17639,-0.03307 -0.32247,-0.07166 -0.40514,-0.107487 -0.57601,-0.314192 -0.16813,-0.209462 -0.16813,-0.51263 0,-0.190169 0.0772,-0.35829 0.0799,-0.16812 0.23978,-0.300412 0.15434,-0.129535 0.39137,-0.203949 0.23977,-0.07717 0.53467,-0.07717 0.27561,0 0.55673,0.0689 0.28388,0.06614 0.47129,0.162608 v 0.553971 h -0.0276 q -0.19844,-0.146072 -0.48231,-0.245291 -0.28388,-0.101974 -0.55673,-0.101974 -0.28388,0 -0.47956,0.110243 -0.19568,0.107486 -0.19568,0.32246 0,0.190169 0.11851,0.286632 0.11576,0.09646 0.37483,0.157096 0.14331,0.03307 0.3197,0.06615 0.17915,0.03307 0.29766,0.06063 0.36104,0.08268 0.55673,0.283875 0.19568,0.20395 0.19568,0.540191 z"
         id="path6923"
         style="fill:#ff0000" />
      <path
         d="m 235.42761,64.349559 q 0,0.421679 -0.35002,0.691774 -0.34726,0.270096 -0.95084,0.270096 -0.34176,0 -0.62839,-0.07993 -0.28388,-0.08268 -0.4768,-0.179145 v -0.581532 h 0.0276 q 0.24529,0.184657 0.5457,0.2949 0.30042,0.107487 0.57602,0.107487 0.34176,0 0.53468,-0.110243 0.19293,-0.110243 0.19293,-0.347265 0,-0.181901 -0.10473,-0.275608 -0.10474,-0.09371 -0.40239,-0.159852 -0.11024,-0.0248 -0.28939,-0.05788 -0.17639,-0.03307 -0.32246,-0.07166 -0.40514,-0.107487 -0.57602,-0.314192 -0.16812,-0.209462 -0.16812,-0.51263 0,-0.190169 0.0772,-0.35829 0.0799,-0.16812 0.23978,-0.300412 0.15434,-0.129535 0.39136,-0.203949 0.23978,-0.07717 0.53468,-0.07717 0.27561,0 0.55673,0.0689 0.28387,0.06614 0.47129,0.162608 v 0.553971 h -0.0276 q -0.19843,-0.146072 -0.48231,-0.245291 -0.28387,-0.101974 -0.55673,-0.101974 -0.28387,0 -0.47955,0.110243 -0.19568,0.107486 -0.19568,0.32246 0,0.190169 0.11851,0.286632 0.11575,0.09646 0.37482,0.157096 0.14332,0.03307 0.31971,0.06615 0.17914,0.03307 0.29765,0.06063 0.36105,0.08268 0.55673,0.283875 0.19568,0.20395 0.19568,0.540191 z"
         id="path6925"
         style="fill:#ff0000" />
      <path
         d="m 238.79554,63.699125 q 0,0.752409 -0.38585,1.187868 -0.38585,0.43546 -1.03353,0.43546 -0.65319,0 -1.03904,-0.43546 -0.3831,-0.435459 -0.3831,-1.187868 0,-0.752408 0.3831,-1.187868 0.38585,-0.438216 1.03904,-0.438216 0.64768,0 1.03353,0.438216 0.38585,0.43546 0.38585,1.187868 z m -0.53468,0 q 0,-0.598068 -0.23427,-0.887456 -0.23426,-0.292143 -0.65043,-0.292143 -0.42168,0 -0.65595,0.292143 -0.23151,0.289388 -0.23151,0.887456 0,0.578776 0.23427,0.879188 0.23427,0.297656 0.65319,0.297656 0.41341,0 0.64768,-0.2949 0.23702,-0.297656 0.23702,-0.881944 z"
         id="path6927"
         style="fill:#ff0000" />
      <path
         d="m 242.17449,65.237015 h -0.51815 v -1.752863 q 0,-0.212218 -0.0248,-0.396875 -0.0248,-0.187413 -0.0909,-0.292144 -0.0689,-0.115755 -0.19844,-0.170877 -0.12953,-0.05788 -0.33624,-0.05788 -0.21222,0 -0.44373,0.104731 -0.23151,0.10473 -0.44373,0.267339 v 2.298566 h -0.51814 V 62.15848 h 0.51814 v 0.341753 q 0.24254,-0.201193 0.50161,-0.314192 0.25907,-0.113 0.53192,-0.113 0.49885,0 0.76068,0.300413 0.26183,0.300412 0.26183,0.865407 z"
         id="path6929"
         style="fill:#ff0000" />
    </g>
  </g>
</svg>
