<?xml version="1.0" encoding="UTF-8" standalone="no"?>
<!-- Created with Inkscape (http://www.inkscape.org/) -->

<svg
   width="793.70081"
   height="1122.5197"
   viewBox="0 0 210 297"
   version="1.1"
   id="svg5"
   inkscape:version="1.1 (c4e8f9e, 2021-05-24)"
   sodipodi:docname="verkefni1 logo.svg"
   xmlns:inkscape="http://www.inkscape.org/namespaces/inkscape"
   xmlns:sodipodi="http://sodipodi.sourceforge.net/DTD/sodipodi-0.dtd"
   xmlns="http://www.w3.org/2000/svg"
   xmlns:svg="http://www.w3.org/2000/svg">
  <sodipodi:namedview
     id="namedview7"
     pagecolor="#ffffff"
     bordercolor="#666666"
     borderopacity="1.0"
     inkscape:pageshadow="2"
     inkscape:pageopacity="0.0"
     inkscape:pagecheckerboard="0"
     inkscape:document-units="mm"
     showgrid="false"
     showborder="true"
     units="px"
     inkscape:zoom="2.3568812"
     inkscape:cx="401.59003"
     inkscape:cy="498.54019"
     inkscape:window-width="1412"
     inkscape:window-height="1004"
     inkscape:window-x="126"
     inkscape:window-y="23"
     inkscape:window-maximized="0"
     inkscape:current-layer="layer1" />
  <defs
     id="defs2">
    <inkscape:perspective
       sodipodi:type="inkscape:persp3d"
       inkscape:vp_x="0 : 148.49999 : 1"
       inkscape:vp_y="0 : 1000 : 0"
       inkscape:vp_z="210 : 148.49999 : 1"
       inkscape:persp3d-origin="105 : 98.999992 : 1"
       id="perspective7694" />
  </defs>
  <g
     inkscape:label="Layer 1"
     inkscape:groupmode="layer"
     id="layer1">
    <g
       sodipodi:type="inkscape:box3d"
       id="g7696"
       style="fill:#000000"
       inkscape:perspectiveID="#perspective7694"
       inkscape:corner0="0.45174476 : 0.15377129 : 0 : 1"
       inkscape:corner7="0.39418661 : 0.099630847 : 0.050004091 : 1" />
    <path
       id="path8493"
       style="fill:#000000;stroke-width:0.999999"
       transform="scale(0.26458333)"
       d="m 386.96094,411.40039 -1.75196,5.55664 c -0.96362,3.05692 -2.28423,5.70032 -2.93359,5.87305 -0.64932,0.17265 -3.83075,1.08928 -7.07031,2.03711 l -5.89063,1.72265 -4.05468,-4.05468 -4.05469,-4.05664 -5.88281,3.21093 -5.88282,3.21094 0.625,4 c 0.344,2.19999 0.84871,4.89997 1.1211,6 0.35708,1.44197 -0.89977,3.37353 -4.50782,6.92383 l -5.00585,4.92383 -5.62305,-1.01953 -5.625,-1.01954 -2.25586,3.59571 c -5.13015,8.17111 -5.10793,7.78959 -0.72461,12.54492 l 3.98437,4.32422 -1.40234,4.36328 c -0.77125,2.39955 -1.61981,5.51288 -1.88672,6.91992 -0.39609,2.08804 -1.50072,2.88016 -6.01367,4.30274 l -5.5293,1.74218 v 6.94922 h -0.002 v 6.94922 c 7.88622,0.0118 16.65126,-0.1168 25.65234,-0.27148 v -0.85352 c 0,-0.0934 -0.0302,-0.5343 0,-0.67187 0.061,-0.27927 0.12615,-0.55739 0.18946,-0.83594 -0.16279,-3.41988 -0.0952,-3.10307 -0.16011,-4.96027 -0.21915,-3.4956 -0.15346,-3.0216 1.39445,-10.67059 -0.0708,-0.44291 0.11107,-0.84022 0.28906,-1.22656 0.0322,-0.13305 0.0709,-0.25691 0.11524,-0.3711 0.0461,-0.18812 0.12259,-0.35285 0.22266,-0.5039 0.033,-0.0498 0.0605,-0.10465 0.10156,-0.14649 6e-5,-0.0177 0,-0.0341 0,-0.0527 0,-0.37267 0.0519,-0.69251 0.14258,-0.96094 2.2e-4,-10e-4 0.002,-0.002 0.002,-0.004 0.24678,-1.58963 1.26219,-4.18739 3.24023,-8.29297 5.73052,-11.89376 17.82846,-22.408 30.81055,-26.77929 7.5185,-2.53024 22.46835,-2.53132 30,-0.004 16.9502,5.69163 29.42186,18.57429 34.4043,35.53711 1.22089,4.15363 1.72829,7.87837 1.5664,10.21485 0.025,0.0305 0.043,0.0781 0.043,0.14257 v 0.29297 l 0.008,0.008 c -10e-4,0.006 -0.005,0.0217 -0.008,0.0391 v 0.0723 0.0957 c 3.2e-4,0.001 -1.5e-4,0.003 0,0.004 0,0.008 0.008,0.0217 0,0.0215 -0.008,-2.2e-4 -0.0157,3.9e-4 -0.0234,0 -5.4e-4,0.0168 0.003,0.0345 0.004,0.0527 3.7e-4,0.0161 -0.002,0.0294 -0.002,0.041 0.005,0.008 -0.004,0.0363 -0.004,0.0488 4.8e-4,0.007 -2.3e-4,0.003 0.002,0.0957 -0.0147,0.56099 -0.0217,0.94159 -0.002,1.53716 -0.008,0.0529 -0.0147,0.11348 -0.0176,0.16601 -4.8e-4,0.009 -0.004,0.0181 -0.004,0.0274 0.004,0.003 0.0912,3.5655 0.0898,0.0392 0.0266,-0.005 -0.0221,-0.0392 0.004,-0.0449 0.006,-0.004 -9.2e-4,0.0118 -0.002,0.0156 -9.8e-4,0.0105 0.006,0.0289 -0.002,0.0293 0.004,0.0106 0.007,0.0207 0.01,0.0312 0.0273,0.18899 0.0157,0.35863 0.0235,0.53516 2e-4,0.002 -2e-4,0.004 0,0.006 -8e-5,0.002 1.1e-4,0.004 0,0.006 0.002,0.0197 0.004,0.0389 0.006,0.0586 0.0172,0.003 0.029,0.007 0.0332,0.008 -0.005,-1.5e-4 -0.0182,-3.5e-4 -0.0332,-0.002 0.0394,0.10015 -0.19042,3.00428 -0.18052,3.13836 0.35139,0.18565 0.27292,-1.99898 0.25072,-1.58563 -6.9e-4,0.0134 -0.20061,-3.41593 -0.19963,-3.40297 0.11477,1.52776 -0.0791,2.42554 -0.0511,4.9886 -0.0416,0.0972 0.015,0.86622 -0.0266,0.96324 0.0196,0.99902 -0.0564,1.87813 -0.0564,2.83997 l 0.002,0.002 c 0.0593,0.0469 -7e-5,0.15097 0,0.22656 8e-5,0.0835 -1.5e-4,0.16842 0,0.25195 1e-4,0.0351 -10e-6,0.0703 0,0.10547 0.0886,4.3e-4 0.16032,0.004 0.2793,0.004 h 25.97461 l -0.29297,-7.17188 -0.29297,-7.16992 -5.13086,-1.42383 c -5.08267,-1.41075 -5.14243,-1.47364 -6.22265,-6.58008 -0.59978,-2.83525 -1.35175,-6.05785 -1.67188,-7.16211 -0.40547,-1.39937 0.50752,-3.27949 3.01172,-6.20507 l 3.5918,-4.19727 -2.49805,-4.79492 c -4.01265,-7.6978 -3.47294,-7.37193 -9.79492,-5.90234 l -5.64453,1.3125 -5.0293,-5.10352 c -4.92491,-4.99846 -5.00817,-5.18306 -4.09375,-9.10156 1.63332,-6.99931 1.3202,-7.76165 -4.625,-11.20703 l -5.5332,-3.20508 -4.32031,3.98242 -4.32032,3.98242 -6.80664,-1.86523 -6.80469,-1.86328 -1.88671,-5.66211 -1.88868,-5.66211 h -6.73242 z m 57.72851,77.4668 c -0.001,-2.4e-4 -0.003,1.9e-4 -0.004,0 7.2e-4,0.002 0.0731,1.55734 0.0741,1.55934 4e-5,-0.001 -0.07,-1.55834 -0.0701,-1.55934 z M 344.29688,476.03516 c -0.0245,0.0436 -0.0183,0.0813 -0.0332,0.12304 0.0426,-0.0683 0.0876,-0.13351 0.13477,-0.1914 -1.8e-4,-0.0143 -1e-5,-0.0302 0,-0.0449 -0.0388,0.0403 -0.0845,0.0829 -0.10156,0.11328 z m 98.79882,58.25195 -12.5,0.35937 c -11.24349,0.32395 -13.15337,0.65433 -19,3.28711 -5.91741,2.66472 -7.48587,2.92774 -17.5,2.92774 -10.01416,0 -11.58252,-0.26302 -17.5,-2.92774 -5.81703,-2.61947 -7.78714,-2.96433 -18.75,-3.28711 -6.7375,-0.19835 -12.25,-0.0193 -12.25,0.39844 0,0.41775 1.39147,2.19682 3.09375,3.95313 l 3.09571,3.19336 -1.25586,5.60937 c -0.69056,3.08576 -1.06954,5.77505 -0.84375,5.97461 0.22578,0.19941 2.8437,1.73657 5.81836,3.41797 l 5.4082,3.05859 4.5918,-3.81836 4.59179,-3.81836 6.66602,1.64258 6.66601,1.64258 1.74219,5.75 1.74219,5.75 h 6.75781 6.75781 l 1.91602,-5.75 c 1.34778,-4.04425 2.48556,-5.83824 3.83398,-6.04687 1.05442,-0.16317 4.11911,-0.98195 6.81055,-1.81836 l 4.89453,-1.51954 4.25977,4.17969 4.25976,4.18164 5.59571,-3.34765 c 6.00079,-3.58923 6.27408,-4.26032 4.61914,-11.37891 -0.88252,-3.79619 -0.74146,-4.19394 2.77343,-7.80664 z"
       sodipodi:nodetypes="ccscccccccscccccccssccccccsccccccscssccccccsccccccsccccccscccccccccccccssccccsscsccccscccccccsccccccccccccccscccssccssssscccscccccccccccscccccscc" />
    <path
       style="fill:#000000;stroke-width:0.0967936"
       d="m 98.093729,135.28504 c -0.05908,-0.10835 -0.09373,-0.31355 -0.07698,-0.45597 0.02773,-0.23591 0.07178,-0.26157 0.494544,-0.28819 0.325835,-0.0206 0.464094,-0.0705 0.464094,-0.16781 0,-0.097 -0.113614,-0.13859 -0.378853,-0.13859 -0.208369,0 -0.421784,-0.0539 -0.474255,-0.11987 -0.214301,-0.26925 -2.197561,-5.34362 -2.143018,-5.48312 0.05283,-0.13512 0.876128,-0.15057 8.027879,-0.15057 7.22419,0 7.97464,0.0144 8.02918,0.15386 0.0555,0.14214 -1.92488,5.20201 -2.14481,5.47983 -0.0529,0.0668 -0.30596,0.11987 -0.57146,0.11987 -0.35847,0 -0.47655,0.0357 -0.47655,0.14383 0,0.11053 0.12518,0.14385 0.54044,0.14385 0.63635,0 0.74296,0.13381 0.50189,0.62996 l -0.15784,0.32486 -5.76342,0.003 c -5.715712,0.003 -5.764299,8.6e-4 -5.87084,-0.19447 z m 7.818641,-0.34612 c 0,-0.20262 -0.28801,-0.27108 -0.45422,-0.10795 -0.12948,0.12708 -0.12745,0.16141 0.018,0.3041 0.1268,0.12445 0.1947,0.13574 0.30009,0.0499 0.0749,-0.061 0.1362,-0.17174 0.1362,-0.24606 z m 1.34962,0.0395 c -0.0201,-0.20473 -0.089,-0.32171 -0.2016,-0.34265 -0.13698,-0.0255 -0.17098,0.0364 -0.17098,0.31086 0,0.28224 0.0356,0.34266 0.2016,0.34266 0.16851,0 0.19657,-0.051 0.17098,-0.31087 z m 0.48853,-7.6e-4 c -0.0196,-0.19974 -0.0832,-0.31166 -0.17718,-0.31166 -0.0939,0 -0.15754,0.11192 -0.17717,0.31166 -0.0258,0.26333 0.002,0.31165 0.17717,0.31165 0.17557,0 0.20304,-0.0483 0.17718,-0.31165 z m 0.48852,7.6e-4 c -0.0202,-0.20473 -0.089,-0.32171 -0.2016,-0.34265 -0.13699,-0.0255 -0.17098,0.0364 -0.17098,0.31086 0,0.28224 0.0356,0.34266 0.2016,0.34266 0.1685,0 0.19657,-0.051 0.17098,-0.31087 z m 0.4579,-0.0247 c 0,-0.19523 -0.0539,-0.29523 -0.17098,-0.31736 -0.1376,-0.026 -0.17099,0.0359 -0.17099,0.31736 0,0.28142 0.0334,0.34338 0.17099,0.31737 0.11711,-0.0221 0.17098,-0.12213 0.17098,-0.31737 z m -9.428442,0 c 0,-0.13185 -0.04397,-0.23973 -0.0977,-0.23973 -0.05374,0 -0.0977,0.10788 -0.0977,0.23973 0,0.13186 0.04397,0.23974 0.0977,0.23974 0.05374,0 0.0977,-0.10788 0.0977,-0.23974 z m 0.390821,0 c 0,-0.14916 -0.0554,-0.23973 -0.14656,-0.23973 -0.09119,0 -0.146557,0.0906 -0.146557,0.23973 0,0.14917 0.05537,0.23974 0.146557,0.23974 0.0912,0 0.14656,-0.0906 0.14656,-0.23974 z m 0.29311,0 c 0,-0.13185 -0.044,-0.23973 -0.0977,-0.23973 -0.0537,0 -0.0977,0.10788 -0.0977,0.23973 0,0.13186 0.044,0.23974 0.0977,0.23974 0.0537,0 0.0977,-0.10788 0.0977,-0.23974 z m 0.390811,0 c 0,-0.14916 -0.0553,-0.23973 -0.14655,-0.23973 -0.0912,0 -0.14656,0.0906 -0.14656,0.23973 0,0.14917 0.0554,0.23974 0.14656,0.23974 0.0912,0 0.14655,-0.0906 0.14655,-0.23974 z m 0.29311,0 c 0,-0.13185 -0.044,-0.23973 -0.0977,-0.23973 -0.0537,0 -0.0977,0.10788 -0.0977,0.23973 0,0.13186 0.044,0.23974 0.0977,0.23974 0.0537,0 0.0977,-0.10788 0.0977,-0.23974 z m 0.29312,0 c 0,-0.13185 -0.044,-0.23973 -0.0977,-0.23973 -0.0537,0 -0.0977,0.10788 -0.0977,0.23973 0,0.13186 0.044,0.23974 0.0977,0.23974 0.0537,0 0.0977,-0.10788 0.0977,-0.23974 z m 0.39082,0 c 0,-0.13185 -0.044,-0.23973 -0.0977,-0.23973 -0.0537,0 -0.0977,0.10788 -0.0977,0.23973 0,0.13186 0.044,0.23974 0.0977,0.23974 0.0537,0 0.0977,-0.10788 0.0977,-0.23974 z m 4.39668,-0.57535 c 0,-0.12267 -0.26598,-0.14384 -1.80753,-0.14384 -1.54155,0 -1.80753,0.0212 -1.80753,0.14384 0,0.12267 0.26598,0.14384 1.80753,0.14384 1.54155,0 1.80753,-0.0212 1.80753,-0.14384 z m -6.155361,-6.35998 c 0,-0.21701 0.751831,-1.07603 1.293111,-1.47747 0.92198,-0.68379 1.04161,-0.71488 1.71067,-0.44467 0.79472,0.32097 2.21316,0.3266 2.86489,0.0114 0.24535,-0.11867 0.50379,-0.21577 0.57433,-0.21577 0.17663,0 1.06286,0.51715 1.43677,0.8384 0.34137,0.29329 1.0113,1.14029 1.0113,1.27859 0,0.0529 -1.79282,0.0885 -4.44554,0.0885 -2.44504,0 -4.445531,-0.0356 -4.445531,-0.079 z m 3.512511,-2.34684 c -0.85638,-0.23857 -1.53755,-0.79899 -1.73979,-1.43139 -0.0552,-0.17274 -0.12051,-0.68714 -0.14505,-1.1431 l -0.008,-1.86515 c 0.80266,0.0166 7.42083,-2.19443 2.6859,0.22606 0,0 -0.67816,0.26543 -0.34332,-0.0356 0.25917,-0.23299 0.40153,-0.29923 0.5182,-0.24111 0.36075,0.17971 -0.0464,-0.19461 0.76962,-0.18837 l 2.0466,0.50274 -0.0446,1.3108 c -0.0346,1.01878 -0.0846,1.38823 -0.22423,1.65833 -0.21922,0.42409 -0.68202,0.81985 -1.24662,1.06608 -0.53653,0.23398 -1.6782,0.30448 -2.26837,0.14008 z m 2.80095,-2.28229 c 0.10071,-0.082 0.13539,-0.26442 0.11514,-0.60537 l -0.0289,-0.48798 -0.84716,-0.0276 c -0.79032,-0.0258 -0.85157,-0.0139 -0.91304,0.17614 -0.11223,0.34705 0.0374,0.84549 0.29332,0.97732 0.28833,0.1485 1.18441,0.12739 1.38072,-0.0325 z m -1.31101,-0.29745 c -0.0645,-0.0633 -0.11725,-0.21432 -0.11725,-0.33562 0,-0.20752 0.0376,-0.22056 0.63508,-0.22056 h 0.63508 v 0.33563 0.33563 h -0.51784 c -0.2848,0 -0.57058,-0.0518 -0.63507,-0.11508 z m -0.90269,0.19288 c 0.20263,-0.21346 0.26312,-0.69349 0.11608,-0.921 -0.0577,-0.0892 -0.31051,-0.11612 -0.90227,-0.0959 l -0.82211,0.0281 -0.0301,0.46294 c -0.0412,0.63505 0.0709,0.73571 0.81988,0.73571 0.51127,0 0.65406,-0.0367 0.81852,-0.20987 z m -1.36405,-0.41343 v -0.33563 h 0.63508 c 0.59755,0 0.63507,0.013 0.63507,0.22056 0,0.33864 -0.18703,0.4507 -0.75232,0.4507 h -0.51783 z m -1.1164,-1.63935 c 0.052,-0.92672 0.35207,-1.3141 1.29105,-1.66672 0.28413,-0.10671 1.09829,-0.21193 1.1097,-0.21196 0.0114,-3e-5 -0.56633,0.22596 -0.58423,0.48036 -0.0271,0.38335 1.60812,0.91877 1.81424,1.15932 l -1.34931,-0.11636 -0.26497,0.24247 c -0.34613,0.31673 -0.54484,0.4082 -1.19317,0.54928 -0.29556,0.0643 -0.60977,0.13624 -0.69827,0.15984 -0.14014,0.0374 -0.15627,-0.0396 -0.12502,-0.59623 z m 3.63076,-0.239 c -0.52861,-0.12223 -1.71297,-0.42219 -1.83658,-0.64889 -0.0586,-0.10732 0.49721,-0.39477 0.51371,-0.61691 l 0.0299,-0.40388 0.71933,0.0294 c 1.33821,0.0546 2.55375,0.74274 2.55375,1.44571 l 0.0661,0.69731 -1.10469,0.0209 c -0.44333,-0.005 -2.02699,-0.0474 -2.22934,-0.0942 z"
       id="path10074"
       sodipodi:nodetypes="cscsscsscssssscscccscscccssscsscsscssscssscsssssssssssssssssssssssssssssssssssssssssssssssssssccscssscccssccccccssccssscccssscsccsssccsssccssscccssssscccccscccc"
       inkscape:export-filename="/Users/andrisnaerasmundsson/Desktop/Tækniskóli 2021/logo png utgafa.png"
       inkscape:export-xdpi="96"
       inkscape:export-ydpi="96" />
    <rect
       style="fill:#000000;stroke-width:0.265531"
       id="rect10196"
       width="36.916256"
       height="0.24061188"
       x="85.890968"
       y="137.41057"
       inkscape:export-filename="/Users/andrisnaerasmundsson/Desktop/Tækniskóli 2021/logo png utgafa.png"
       inkscape:export-xdpi="96"
       inkscape:export-ydpi="96" />
    <text
       xml:space="preserve"
       style="font-style:normal;font-weight:normal;font-size:3.54618px;line-height:1.25;font-family:sans-serif;fill:#000000;fill-opacity:1;stroke:none;stroke-width:0.0886547"
       x="73.035278"
       y="172.83383"
       id="text12208"
       transform="scale(1.2327901,0.81116811)"
       inkscape:export-filename="/Users/andrisnaerasmundsson/Desktop/Tækniskóli 2021/logo png utgafa.png"
       inkscape:export-xdpi="96"
       inkscape:export-ydpi="96"><tspan
         sodipodi:role="line"
         id="tspan12206"
         style="stroke-width:0.0886547"
         x="73.035278"
         y="172.83383">Tækniskólinn</tspan></text>
    <path
       style="fill:#000000;stroke-width:0.0675977"
       d="m 383.44829,461.77116 c -0.13465,-0.42745 -0.35908,-1.29766 -0.33968,-1.31707 0.0136,-0.0136 0.74265,-0.18774 1.62014,-0.38702 0.87749,-0.19928 1.89124,-0.44227 2.25279,-0.53999 0.74026,-0.20009 1.70941,-0.6392 2.20622,-0.99963 0.41629,-0.302 1.86481,-1.59889 1.86481,-1.66959 0,-0.0289 -0.30419,-0.41013 -0.67598,-0.84727 -0.90285,-1.06154 -1.43428,-2.5502 -1.47342,-3.52389 -0.0273,-0.67871 2.35082,-1.12528 2.48543,-1.40334 0.0824,-0.17029 -0.53447,2.01998 -0.37947,1.89297 0.27267,-0.22343 0.16462,-1.79563 0.25454,-1.79563 0.0243,0 -0.30979,1.32182 -0.32899,1.94594 -0.0386,1.22603 0.23609,1.20497 0.45671,1.63743 0.41931,0.82192 2.55988,2.01724 4.4615,2.49138 0.73677,0.1837 2.07717,0.33068 3.54106,0.38829 l 1.15658,0.0455 1.52094,0.70772 c 0.83653,0.38925 1.53616,0.72332 1.55475,0.74239 0.0764,0.0783 -4.88611,-0.0478 -5.8472,-0.14867 -1.82718,-0.19168 -3.40454,-0.52592 -4.2154,-0.89322 -0.7195,-0.32592 -1.06769,-0.22687 -2.08268,0.59243 -0.92179,0.74407 -2.16133,1.29384 -5.05833,2.24353 -2.13261,0.69911 -2.94586,0.92809 -2.97432,0.83774 z"
       id="path25137"
       transform="scale(0.26458333)"
       sodipodi:nodetypes="csssssssssscssscssssssc"
       inkscape:export-filename="/Users/andrisnaerasmundsson/Desktop/Tækniskóli 2021/logo png utgafa.png"
       inkscape:export-xdpi="96"
       inkscape:export-ydpi="96" />
    <path
       style="fill:#000000"
       id="path25563"
       sodipodi:type="arc"
       sodipodi:cx="103.47493"
       sodipodi:cy="119.7326"
       sodipodi:rx="0.16990958"
       sodipodi:ry="0.098368704"
       sodipodi:start="0.56072367"
       sodipodi:end="0.19913663"
       sodipodi:arc-type="slice"
       d="m 103.61882,119.78491 a 0.16990958,0.0983687 0 0 1 -0.22089,0.0354 0.16990958,0.0983687 0 0 1 -0.0808,-0.12417 0.16990958,0.0983687 0 0 1 0.2063,-0.0578 0.16990958,0.0983687 0 0 1 0.11804,0.11374 l -0.16655,-0.0195 z"
       inkscape:export-filename="/Users/andrisnaerasmundsson/Desktop/Tækniskóli 2021/logo png utgafa.png"
       inkscape:export-xdpi="96"
       inkscape:export-ydpi="96" />
    <path
       style="fill:#000000"
       id="path25565"
       sodipodi:type="arc"
       sodipodi:cx="103.47493"
       sodipodi:cy="119.7326"
       sodipodi:rx="0.14308175"
       sodipodi:ry="0.40936735"
       sodipodi:start="0.56072367"
       sodipodi:end="0.19913683"
       sodipodi:arc-type="slice"
       d="m 103.5961,119.9503 a 0.14308175,0.40936735 0 0 1 -0.18601,0.14722 0.14308175,0.40936735 0 0 1 -0.068,-0.51674 0.14308175,0.40936735 0 0 1 0.17373,-0.24051 0.14308175,0.40936735 0 0 1 0.0994,0.47331 l -0.14025,-0.081 z"
       inkscape:export-filename="/Users/andrisnaerasmundsson/Desktop/Tækniskóli 2021/logo png utgafa.png"
       inkscape:export-xdpi="96"
       inkscape:export-ydpi="96" />
  </g>
</svg>
